# xmcd
#
# Track frame offsets:
#	150
#	16450
#	31910
#	50462
#	70175
#	86435
#	102242
#	120575
#	138387
#	155207
#
# Disc length: 2290 seconds
#
# Revision: 3
# Processed by: cddbd v1.4PL0 Copyright (c) Steve Scherf et al.
#
# Submitted via: MusicManager v6.1.1.0
#
DISCID=8008f00a
DTITLE=Lenny LeBlanc - The Bridge
DYEAR=1996
DGENRE=country
TTITLE0=Inspiration of My Heart
TTITLE1=Looking Up
TTITLE2=When the Rain Comes In
TTITLE3=Heaven Is
TTITLE4=The Bridge
TTITLE5=Enough of You
TTITLE6=River of Forgiveness
TTITLE7=I'll Be There
TTITLE8=Candle in the Rain
TTITLE9=Message to You
EXTD=
EXTT0=
EXTT1=
EXTT2=
EXTT3=
EXTT4=
EXTT5=
EXTT6=
EXTT7=
EXTT8=
EXTT9=
PLAYORDER=
